<?xml version="1.0" encoding="utf-8"?>
<!-- Generator: Adobe Illustrator 24.3.0, SVG Export Plug-In . SVG Version: 6.00 Build 0)  -->
<svg version="1.1" id="Layer_1" xmlns="http://www.w3.org/2000/svg" xmlns:xlink="http://www.w3.org/1999/xlink" x="0px" y="0px"
	 viewBox="0 0 134.45 78.99" style="enable-background:new 0 0 134.45 78.99;" xml:space="preserve">
<style type="text/css">
	.st0{clip-path:url(#SVGID_2_);fill:url(#SVGID_3_);}
	.st1{fill-rule:evenodd;clip-rule:evenodd;fill:#FFFFFF;}
	.st2{fill:#0071BB;}
</style>
<g>
	<g>
		<defs>
			<polygon id="SVGID_1_" points="15.37,14.26 15.37,66.66 71.16,66.66 123.55,14.26 			"/>
		</defs>
		<clipPath id="SVGID_2_">
			<use xlink:href="#SVGID_1_"  style="overflow:visible;"/>
		</clipPath>
		
			<linearGradient id="SVGID_3_" gradientUnits="userSpaceOnUse" x1="-11.7472" y1="816.734" x2="-10.1655" y2="816.734" gradientTransform="matrix(0 33.8336 33.8336 0 -27563.5918 411.714)">
			<stop  offset="0" style="stop-color:#00B8F1"/>
			<stop  offset="0.2049" style="stop-color:#00A2E0"/>
			<stop  offset="0.5146" style="stop-color:#0087CC"/>
			<stop  offset="0.7897" style="stop-color:#0077BF"/>
			<stop  offset="1" style="stop-color:#0071BB"/>
		</linearGradient>
		<rect x="15.37" y="14.26" class="st0" width="108.18" height="52.39"/>
	</g>
	<path class="st1" d="M79.57,24.32l-10.65,0v25.32l-9.3-25.32H50.4l-7.94,21.17c-0.85-5.34-6.37-7.18-10.71-8.57
		c-2.87-0.92-5.91-2.27-5.88-3.77c0.02-1.23,1.63-2.37,4.82-2.2c2.14,0.11,4.03,0.28,7.79,2.1l3.7-6.44
		c-3.43-1.75-8.18-2.85-12.06-2.85h-0.02c-4.53,0-8.31,1.47-10.65,3.89c-1.63,1.69-2.51,3.84-2.55,6.21
		c-0.06,3.27,1.14,5.59,3.66,7.44c2.13,1.56,4.84,2.57,7.24,3.31c2.95,0.92,5.37,1.71,5.34,3.41c-0.02,0.62-0.26,1.19-0.7,1.66
		c-0.74,0.76-1.87,1.05-3.43,1.08c-3.02,0.06-5.25-0.41-8.82-2.51l-3.29,6.53c3.55,2.02,7.76,3.21,12.06,3.21l0.55-0.01
		c3.74-0.07,6.75-1.13,9.16-3.07c0.14-0.11,0.26-0.22,0.39-0.34l-1.07,2.85h9.67l1.62-4.94c1.7,0.58,3.63,0.9,5.68,0.9
		c2,0,3.88-0.31,5.55-0.85l1.56,4.89h15.77V47.19h3.44c8.32,0,13.23-4.24,13.23-11.33C94.52,27.95,89.74,24.32,79.57,24.32
		 M54.96,45.99c-1.24,0-2.41-0.22-3.41-0.6l3.37-10.65h0.06l3.32,10.68C57.3,45.78,56.17,45.99,54.96,45.99 M80.19,39.87h-2.35
		v-8.58h2.35c3.13,0,5.62,1.04,5.62,4.24C85.82,38.83,83.32,39.87,80.19,39.87"/>
	<path class="st2" d="M83.01,64.25c0-1.64,1.24-2.88,2.82-2.88c1.56,0,2.8,1.25,2.8,2.88c0,1.67-1.23,2.9-2.8,2.9
		C84.25,67.15,83.01,65.92,83.01,64.25 M85.83,67.72c1.88,0,3.49-1.47,3.49-3.47c0-1.99-1.61-3.45-3.49-3.45
		c-1.9,0-3.52,1.47-3.52,3.45C82.31,66.25,83.92,67.72,85.83,67.72 M85.1,64.53h0.7l1.05,1.72h0.68l-1.14-1.75
		c0.59-0.07,1.04-0.39,1.04-1.1c0-0.78-0.47-1.13-1.41-1.13h-1.52v3.99h0.6V64.53z M85.1,64.01v-1.24h0.82
		c0.42,0,0.87,0.09,0.87,0.58c0,0.62-0.46,0.66-0.96,0.66H85.1z"/>
</g>
</svg>
